<?xml version="1.0" encoding="utf-8"?>
<svg x="0pt" y="0pt" width="16pt" height="16pt" viewBox="0 0 16 16" xmlns="http://www.w3.org/2000/svg" xmlns:xlink="http://www.w3.org/1999/xlink">
  <!--Generated by AMDN-->
  <g id="Layer_1">
    <path id="Path_8" style="fill:#2bba0f;fill-opacity:1;fill-rule:nonzero;opacity:1;stroke:none;" d="M8,16 C8,16,14,10.314,14,6 C14,3.85641,12.8564,1.87564,11,0.803848 C9.14359,-0.267949,6.85641,-0.267949,5,0.803847 C3.14359,1.87564,2,3.85641,2,6 C2,10.314,8,16,8,16 M8,9 C6.9282,9,5.93782,8.4282,5.40192,7.5 C4.86603,6.5718,4.86603,5.4282,5.40192,4.5 C5.93782,3.5718,6.9282,3,8,3 C9.0718,3,10.0622,3.5718,10.5981,4.5 C11.134,5.4282,11.134,6.5718,10.5981,7.5 C10.0622,8.4282,9.0718,9,8,9"/>
  </g>
</svg>
